<svg width="24" height="24" viewBox="0 0 24 24" fill="none" xmlns="http://www.w3.org/2000/svg">
<path d="M9.125 21.1L0.700003 12.7C0.600003 12.6 0.529003 12.4917 0.487003 12.375C0.445003 12.2584 0.424337 12.1334 0.425003 12C0.425003 11.8667 0.446003 11.7417 0.488003 11.625C0.530003 11.5084 0.60067 11.4 0.700003 11.3L9.125 2.87502C9.35834 2.64169 9.65 2.52502 10 2.52502C10.35 2.52502 10.65 2.65002 10.9 2.90002C11.15 3.15002 11.275 3.44169 11.275 3.77502C11.275 4.10836 11.15 4.40002 10.9 4.65002L3.55 12L10.9 19.35C11.1333 19.5834 11.25 19.871 11.25 20.213C11.25 20.555 11.125 20.8507 10.875 21.1C10.625 21.35 10.3333 21.475 10 21.475C9.66667 21.475 9.375 21.35 9.125 21.1Z" fill="white"/>
</svg>
