<svg width="26" height="26" viewBox="0 0 26 26" fill="none" xmlns="http://www.w3.org/2000/svg">
<circle cx="13" cy="13" r="13" fill="#B7B7B7" fill-opacity="0.6"/>
<path d="M18.7564 7.25693C18.6792 7.17807 18.5875 7.1155 18.4865 7.07281C18.3856 7.03012 18.2774 7.00815 18.1681 7.00815C18.0589 7.00815 17.9507 7.03012 17.8497 7.07281C17.7488 7.1155 17.6571 7.17807 17.5799 7.25693L13.5 11.4084L9.42007 7.24842C9.34282 7.16966 9.25112 7.10719 9.15019 7.06456C9.04927 7.02194 8.9411 7 8.83186 7C8.72262 7 8.61444 7.02194 8.51352 7.06456C8.41259 7.10719 8.32089 7.16966 8.24364 7.24842C8.1664 7.32718 8.10513 7.42068 8.06332 7.52359C8.02152 7.62649 8 7.73678 8 7.84817C8 7.95955 8.02152 8.06984 8.06332 8.17275C8.10513 8.27565 8.1664 8.36915 8.24364 8.44791L12.3236 12.6078L8.24364 16.7678C8.1664 16.8465 8.10513 16.94 8.06332 17.0429C8.02152 17.1458 8 17.2561 8 17.3675C8 17.4789 8.02152 17.5892 8.06332 17.6921C8.10513 17.795 8.1664 17.8885 8.24364 17.9673C8.32089 18.046 8.41259 18.1085 8.51352 18.1511C8.61444 18.1937 8.72262 18.2157 8.83186 18.2157C8.9411 18.2157 9.04927 18.1937 9.15019 18.1511C9.25112 18.1085 9.34282 18.046 9.42007 17.9673L13.5 13.8073L17.5799 17.9673C17.6572 18.046 17.7489 18.1085 17.8498 18.1511C17.9507 18.1937 18.0589 18.2157 18.1681 18.2157C18.2774 18.2157 18.3856 18.1937 18.4865 18.1511C18.5874 18.1085 18.6791 18.046 18.7564 17.9673C18.8336 17.8885 18.8949 17.795 18.9367 17.6921C18.9785 17.5892 19 17.4789 19 17.3675C19 17.2561 18.9785 17.1458 18.9367 17.0429C18.8949 16.94 18.8336 16.8465 18.7564 16.7678L14.6764 12.6078L18.7564 8.44791C19.0734 8.12465 19.0734 7.5802 18.7564 7.25693Z" fill="black"/>
</svg>
